<svg width="22" height="16" viewBox="0 0 22 16" fill="none" xmlns="http://www.w3.org/2000/svg">
<path d="M1.67134 15.9998H5.11355V7.7793L0.196106 4.12573V14.5441C0.196106 15.3433 0.861407 15.9998 1.67134 15.9998Z" fill="#ACB0B6"/>
<path d="M16.8865 15.9998H20.3287C21.1386 15.9998 21.8039 15.3433 21.8039 14.5441V4.12573L16.8865 7.75076" fill="#B1B1B1"/>
<path d="M16.8865 1.47135V7.77947L21.8039 4.15444V2.18494C21.8039 0.386698 19.7212 -0.640868 18.2749 0.443786" fill="#919191"/>
<path d="M5.11359 7.77955V1.47144L11.0145 5.83859L16.8865 1.47144V7.77955L10.9856 12.1182" fill="#EBEBEB"/>
<path d="M0.196106 2.185V4.12596L5.11355 7.75099V1.47142L3.72509 0.443849C2.27879 -0.612261 0.196106 0.415305 0.196106 2.185Z" fill="#919191"/>
</svg>
