<?xml version="1.0" encoding="UTF-8"?>
<svg id="Layer_2" data-name="Layer 2" xmlns="http://www.w3.org/2000/svg" xmlns:xlink="http://www.w3.org/1999/xlink" viewBox="0 0 1212.31 1268.69">
  <defs>
    <style>
      .cls-1 {
        stroke-width: 3px;
      }

      .cls-1, .cls-2, .cls-3, .cls-4, .cls-5 {
        fill: none;
      }

      .cls-1, .cls-6, .cls-7, .cls-8, .cls-9, .cls-3, .cls-4, .cls-5 {
        stroke-miterlimit: 10;
      }

      .cls-1, .cls-6, .cls-7, .cls-8, .cls-9, .cls-5 {
        stroke: #000;
      }

      .cls-10 {
        clip-path: url(#clippath);
      }

      .cls-2, .cls-11 {
        stroke-width: 0px;
      }

      .cls-6, .cls-8 {
        fill: #e076ca;
      }

      .cls-6, .cls-4 {
        stroke-width: 4px;
      }

      .cls-12 {
        clip-path: url(#clippath-1);
      }

      .cls-7 {
        fill: #e88452;
      }

      .cls-7, .cls-8, .cls-9, .cls-5 {
        stroke-width: .5px;
      }

      .cls-9 {
        fill: #dc4027;
      }

      .cls-3 {
        stroke-width: 2px;
      }

      .cls-3, .cls-4 {
        stroke: #fff;
      }

      .cls-11 {
        fill: #fff;
      }
    </style>
    <clipPath id="clippath">
      <circle class="cls-2" cx="608.4" cy="653.1" r="522"/>
    </clipPath>
    <clipPath id="clippath-1">
      <polyline class="cls-2" points="-871.71 -519.18 9320.03 -519.18 9320.03 14705.51 -871.71 14705.51"/>
    </clipPath>
  </defs>
  <g id="tipo">
    <path class="cls-1" d="M243.37,1113.47C96.5,1003.16,1.5,827.52,1.5,629.7c0-110.56,29.67-214.18,81.48-303.35"/>
    <path class="cls-1" d="M1123.18,316.01c55.6,91.45,87.63,198.83,87.63,313.68,0,205.18-102.2,386.5-258.47,495.81-1.15.8-2.3,1.6-3.46,2.4"/>
    <path class="cls-3" d="M243.37,1113.47C96.5,1003.16,1.5,827.52,1.5,629.7c0-110.56,29.67-214.18,81.48-303.35"/>
    <path class="cls-3" d="M1119.18,316.01c55.6,91.45,87.63,198.83,87.63,313.68,0,205.18-102.2,386.5-258.47,495.81-1.15.8-2.3,1.6-3.46,2.4"/>
    <g class="cls-10">
      <g class="cls-12">
        <path class="cls-9" d="M936.9,770.95c-276.34,267.65-293.41,302.09-335.08,302.09s-74.37-18.81-350.7-286.47c-29.08-28.18-190.97-218.75-17.36-401.05,139.35-146.31,313.4-52.78,351.7-29.25,4.72,2.9,10.65,2.9,15.37,0,38.3-23.53,212.35-117.06,351.7,29.25,173.61,182.3,13.45,357.25-15.62,385.42"/>
        <path class="cls-4" d="M936.9,770.95c-276.34,267.65-293.41,302.09-335.08,302.09s-74.37-18.81-350.7-286.47c-29.08-28.18-190.97-218.75-17.36-401.05,139.35-146.31,313.4-52.78,351.7-29.25,4.72,2.9,10.65,2.9,15.37,0,38.3-23.53,212.35-117.06,351.7,29.25,173.61,182.3,13.45,357.25-15.62,385.42Z"/>
        <path class="cls-8" d="M607.03,564.35c1.55,47.58,273.17,202.26,261.29,183.16,0,0,223.98-156.82,26.91-327.26-192.71-166.67-360.86,48.93-411.76,112.71-12.15,15.22-22.28,40.7-12.81,59.52,16.74,33.26,57.83,37.85,84.11,12.34l52.26-40.46s91.15,9.55,131.08-44.27"/>
        <path class="cls-5" d="M607.03,564.35c1.55,47.58,273.17,202.26,261.29,183.16,0,0,223.98-156.82,26.91-327.26-192.71-166.67-360.86,48.93-411.76,112.71-12.15,15.22-22.28,40.7-12.81,59.52,16.74,33.26,57.83,37.85,84.11,12.34l52.26-40.46s91.15,9.55,131.08-44.27"/>
        <path class="cls-7" d="M588.8,424.59s-170.14-151.04-321.19,8.68c-151.05,159.72,22.57,314.24,22.57,314.24l194.45,149.31,27.78-15.62,97.63,83.45c10.33,8.83,23.24,14.32,36.82,14.95,14.14.65,31.5-7.24,37.43-27.54,4.82-16.49.28-34.32-11.14-47.16l-58.29-60.16,63.08,61.61c11.19,10.93,27.02,16.11,42.36,13.06,28.73-5.73,38.7-45.02,19.56-65.98-20.96-22.96-42.84-45.15-64.24-67.7,15.86,19.04,35.2,36.04,52.52,53.77,14.6,14.95,32.9,29.16,54.25,23.48,31.76-8.44,45.14-48.61,15.97-74.02l-65.24-63.6,73.58,69.91c15.62,8.68,24.56,6.34,37.65,1.5,8.24-3.05,17.62-11.05,20.72-23.38,3.72-14.81-1.39-30.45-12.54-40.9l-239.41-221.08-24.31-86.81Z"/>
        <path class="cls-4" d="M588.8,424.59s-170.14-151.04-321.19,8.68c-151.05,159.72,22.57,314.24,22.57,314.24l194.45,149.31,27.78-15.62,97.63,83.45c10.33,8.83,23.24,14.32,36.82,14.95,14.14.65,31.5-7.24,37.43-27.54,4.82-16.49.28-34.32-11.14-47.16l-58.29-60.16,63.08,61.61c11.19,10.93,27.02,16.11,42.36,13.06,28.73-5.73,38.7-45.02,19.56-65.98-20.96-22.96-42.84-45.15-64.24-67.7,15.86,19.04,35.2,36.04,52.52,53.77,14.6,14.95,32.9,29.16,54.25,23.48,31.76-8.44,45.14-48.61,15.97-74.02l-65.24-63.6,73.58,69.91c15.62,8.68,24.56,6.34,37.65,1.5,8.24-3.05,17.62-11.05,20.72-23.38,3.72-14.81-1.39-30.45-12.54-40.9l-239.41-221.08-24.31-86.81Z"/>
        <path class="cls-6" d="M334.82,689.09s-66.57,43.14-34.21,87.94c22.57,31.25,61.66,5.21,61.66,5.21,0,0-27.41,35.25-2.64,62.5,17.36,19.1,43.41,24.31,64.24,5.21,0,0-23.79,29.46,5.21,55.56,17.36,15.62,42.34,10.8,56.76-9.36,0,0-32.46,37.13-2.94,64.92,24.15,22.73,52.08,13.89,71.53-9.1,27.42-32.4,33.69-59.3,15.27-77.71-6.94-6.95-32.63-25.13-59.72,1.32,0,0,30.63-32.19-1.04-60.35-31.25-27.78-57.3-3.48-57.3-3.48,0,0,27.78-31.25-1.74-57.29-22.4-19.76-43.4-12.15-59.03,0,0,0,31.25-31.25-5.21-62.5-20.84-17.86-32.98-12.15-50.86-2.86"/>
        <path class="cls-4" d="M334.82,689.09s-66.57,43.14-34.21,87.94c22.57,31.25,61.66,5.21,61.66,5.21,0,0-27.41,35.25-2.64,62.5,17.36,19.1,43.41,24.31,64.24,5.21,0,0-23.79,29.46,5.21,55.56,17.36,15.62,42.34,10.8,56.76-9.36,0,0-32.46,37.13-2.94,64.92,24.15,22.73,52.08,13.89,71.53-9.1,27.42-32.4,33.69-59.3,15.27-77.71-6.94-6.95-32.63-25.13-59.72,1.32,0,0,30.63-32.19-1.04-60.35-31.25-27.78-57.3-3.48-57.3-3.48,0,0,27.78-31.25-1.74-57.29-22.4-19.76-43.4-12.15-59.03,0,0,0,31.25-31.25-5.21-62.5-20.84-17.86-32.98-12.15-50.86-2.86Z"/>
        <path class="cls-8" d="M866.59,747.51s225.72-156.83,28.65-327.26c-192.71-166.67-360.86,48.92-411.76,112.71-12.15,15.22-22.28,40.7-12.81,59.52,16.74,33.26,57.83,37.85,84.11,12.33l52.26-40.45s91.15,9.55,131.08-44.27"/>
        <path class="cls-4" d="M866.59,747.51s225.72-156.83,28.65-327.26c-192.71-166.67-360.86,48.92-411.76,112.71-12.15,15.22-22.28,40.7-12.81,59.52,16.74,33.26,57.83,37.85,84.11,12.33l52.26-40.45s91.15,9.55,131.08-44.27"/>
      </g>
    </g>
    <g>
      <path class="cls-11" d="M295.18,1150.36c5.11-8.79,11.25-19.35,16.31-26.88l-.27-.18c-6.75,5.78-14.25,11.71-22.82,18.1l-30.09,22.5-5.96-3.9,9.14-35.44c2.73-10.47,5.43-19.93,8.45-28.28l-.18-.12c-5.15,7.47-12.28,17.38-18.8,26.15l-18.72,25.04-7.5-4.91,44.11-58.11,10.03,6.56-8.89,36.25c-2.38,9.15-4.68,17.2-7.28,24.53l.27.18c5.56-5.14,12.1-10.4,19.84-16.31l30.12-22.35,10.03,6.56-36.07,63.37-7.68-5.03,15.97-27.74Z"/>
      <path class="cls-11" d="M333.01,1180.78l-16.56,17.52-8.8-4.13,53.29-55.39,10.26,4.81-8.41,76.43-9.09-4.26,2.68-24.03-23.36-10.96ZM357.73,1184.27l2.44-21.99c.55-4.99,1.41-9.36,2.22-13.63l-.2-.09c-2.81,3.45-5.77,6.96-8.92,10.37l-15.39,16.04,19.84,9.3ZM356.07,1131.61c2.7-6.01,7.12-8.83,11.32-6.85,2.15,1.01,3.4,2.67,4.95,4.71,1.15,1.61,2.3,3.23,3.77,3.91,1.56.73,2.77.46,4.43-2.58l4.6,2.15c-2.79,6.21-6.5,8.52-11.09,6.37-2.05-.96-3.45-2.57-5.09-4.65-1.4-1.85-2.26-3.32-3.72-4.01-1.56-.73-3.03.61-4.56,3.11l-4.6-2.16Z"/>
      <path class="cls-11" d="M455.92,1212.23c-7.59,23.87-26.13,31.91-43.83,26.29-18.32-5.83-26.66-24.12-19.99-45.11,7-22.02,25.27-32.08,43.79-26.18,18.94,6.02,26.56,24.42,20.02,45.01ZM401.74,1196.24c-4.71,14.82-.91,30.64,13.19,35.13,14.2,4.52,26.38-6,31.39-21.74,4.38-13.79,1.76-30.49-13.16-35.23-14.82-4.71-26.58,6.62-31.42,21.85Z"/>
      <path class="cls-11" d="M471.99,1241.86c3.66,3.32,9.32,6.57,15.69,7.76,9.45,1.76,15.9-2.19,17.25-9.41,1.25-6.69-1.86-11.22-10.82-16.74-10.9-6.32-16.99-13.72-15.11-23.8,2.08-11.15,12.86-17.7,26.77-15.1,7.32,1.37,12.31,4.06,15.16,6.46l-3.96,7.06c-2.1-1.71-6.48-4.73-12.95-5.93-9.77-1.82-14.57,3.32-15.48,8.2-1.25,6.69,2.49,10.79,11.65,16.46,11.23,6.93,16.29,13.92,14.33,24.42-2.06,11.04-12.02,19.07-28.89,15.92-6.9-1.29-14.06-4.71-17.4-7.97l3.78-7.31Z"/>
      <path class="cls-11" d="M583.49,1194.58l-.4,43.08c-.15,16.3,7.02,23.28,16.73,23.37,10.8.1,17.78-6.96,17.93-23.05l.41-43.08,9.5.09-.4,42.43c-.21,22.35-12.07,31.42-27.83,31.27-14.9-.14-26.05-8.78-25.84-31.34l.4-42.86,9.5.09Z"/>
      <path class="cls-11" d="M658.51,1265.97l-9.01-72.22,10.18-1.27,27.7,33.65c6.41,7.8,11.54,14.88,15.89,21.85l.2-.13c-2.06-9.54-3.37-18.3-4.77-29.54l-3.77-30.21,8.79-1.1,9.01,72.21-9.43,1.18-27.5-33.78c-6.04-7.41-11.89-15.05-16.51-22.42l-.31.15c1.67,9.04,2.97,17.69,4.46,29.69l3.85,30.86-8.79,1.1Z"/>
      <path class="cls-11" d="M735.65,1179.9l15.86,71.03-9.17,2.05-15.86-71.03,9.17-2.05Z"/>
      <path class="cls-11" d="M758.66,1175.75c5.17-2.6,11.43-5.34,18.51-7.66,12.82-4.21,22.93-4.23,30.83-.57,8.01,3.62,14.22,10.45,17.89,21.63,3.7,11.28,3.24,21.66-1.13,30.14-4.34,8.58-13.87,15.57-27.3,19.98-6.36,2.09-11.8,3.53-16.48,4.5l-22.32-68.02ZM787.65,1233.97c2.39-.33,5.71-1.31,9.2-2.45,19.08-6.26,25.94-20.33,19.81-39-5.25-16.35-17.88-23.68-36.76-17.48-4.62,1.51-7.97,3.07-10.16,4.36l17.91,54.58Z"/>
      <path class="cls-11" d="M862.33,1189.58l3.06,23.91-8.77,4.2-9.11-76.32,10.23-4.89,53.82,54.93-9.06,4.34-16.89-17.29-23.28,11.14ZM880.68,1172.66l-15.47-15.82c-3.51-3.59-6.35-7.02-9.14-10.35l-.2.09c.89,4.36,1.73,8.87,2.38,13.47l2.66,22.07,19.77-9.46Z"/>
      <path class="cls-11" d="M926.2,1169.53c4.95-.06,11.3-1.52,16.78-4.98,8.12-5.13,10.16-12.42,6.24-18.63-3.63-5.75-8.99-6.96-19.32-4.92-12.29,2.78-21.79,1.5-27.26-7.18-6.05-9.59-2.61-21.72,9.36-29.28,6.3-3.98,11.79-5.4,15.51-5.58l1.9,7.87c-2.7.17-7.96.94-13.53,4.46-8.4,5.3-8.43,12.34-5.77,16.54,3.63,5.75,9.16,6.22,19.73,4.15,12.95-2.55,21.41-.88,27.12,8.17,6,9.5,4.15,22.15-10.37,31.32-5.93,3.75-13.51,6.1-18.18,5.99l-2.2-7.93Z"/>
    </g>
    <g>
      <path class="cls-11" d="M67.15,299.09l61.79,38.44-4.96,7.98-61.79-38.44,4.96-7.98Z"/>
      <path class="cls-11" d="M141.28,317.76l-57.78-44.24,6.24-8.14,43.41,3.86c10.05.9,18.7,2.21,26.72,4l.05-.24c-8.24-5.22-15.4-10.43-24.4-17.32l-24.18-18.51,5.38-7.03,57.78,44.24-5.78,7.54-43.37-4.1c-9.51-.89-19.07-2.09-27.56-3.97l-.11.32c7.62,5.15,14.69,10.3,24.29,17.65l24.69,18.9-5.38,7.03Z"/>
      <path class="cls-11" d="M180.48,250.68c4.8-1.2,10.64-4.1,15.17-8.74,6.71-6.88,7-14.44,1.75-19.57-4.87-4.75-10.37-4.69-19.93-.29-11.31,5.56-20.84,6.52-28.18-.65-8.11-7.92-7.58-20.52,2.3-30.65,5.2-5.33,10.21-7.99,13.79-9.02l3.68,7.21c-2.59.8-7.53,2.76-12.13,7.48-6.94,7.11-5.33,13.96-1.77,17.43,4.87,4.75,10.36,3.92,20.15-.55,12-5.49,20.62-5.82,28.27,1.64,8.04,7.84,9.18,20.58-2.81,32.87-4.9,5.02-11.73,9.08-16.3,10.05l-3.98-7.21Z"/>
      <path class="cls-11" d="M201.49,157.13l-17.05,14.11-5.09-6.15,41.5-34.36,5.09,6.15-17.13,14.18,41.31,49.9-7.32,6.06-41.31-49.9Z"/>
      <path class="cls-11" d="M246.27,113.09l41.56,59.73-7.71,5.36-41.56-59.73,7.71-5.36Z"/>
      <path class="cls-11" d="M287.07,96.61l-19.16,11.08-4-6.92,46.64-26.98,4,6.92-19.25,11.14,32.44,56.08-8.22,4.76-32.44-56.08Z"/>
      <path class="cls-11" d="M339.63,59.86l16.97,39.6c6.42,14.98,15.79,18.49,24.73,14.66,9.92-4.25,13.47-13.53,7.13-28.31l-16.98-39.59,8.73-3.75,16.72,39c8.81,20.54,1.61,33.62-12.88,39.83-13.7,5.87-27.38,2.46-36.27-18.29l-16.89-39.4,8.73-3.74Z"/>
      <path class="cls-11" d="M425.05,36.15l-21.23,6.27-2.27-7.66,51.67-15.27,2.27,7.66-21.33,6.31,18.37,62.13-9.11,2.69-18.36-62.12Z"/>
      <path class="cls-11" d="M539.89,39.45c4.24,24.69-8.52,40.35-26.82,43.49-18.94,3.25-34.76-9.15-38.49-30.86-3.91-22.77,7.69-40.1,26.84-43.38,19.58-3.36,34.82,9.47,38.47,30.75ZM484.44,50.17c2.63,15.32,13.29,27.63,27.86,25.12,14.68-2.52,20.67-17.46,17.87-33.74-2.45-14.26-12.45-27.88-27.88-25.23-15.32,2.63-20.56,18.1-17.85,33.84Z"/>
      <path class="cls-11" d="M656.96,42.92c-.17-10.16-.37-22.38.07-31.44h-.32c-2.79,8.42-6.15,17.38-10.19,27.28l-14.14,34.81-7.12-.26-10.49-35.07c-3.08-10.38-5.65-19.87-7.38-28.58h-.21c-.55,9.05-1.54,21.22-2.58,32.1l-3.09,31.11-8.96-.33,7.74-72.54,11.98.44,11.12,35.63c2.69,9.07,4.88,17.14,6.44,24.76h.32c2.1-7.26,4.99-15.15,8.56-24.2l14.24-34.7,11.98.44,1.86,72.89-9.17-.34-.66-32.01Z"/>
      <path class="cls-11" d="M700.89,57.73l-11.52,21.18-9.56-1.73,37.31-67.2,11.16,2.02,11.46,76.04-9.88-1.79-3.57-23.91-25.39-4.6ZM725.68,54.76l-3.28-21.88c-.75-4.96-1.04-9.41-1.35-13.74l-.21-.04c-1.83,4.06-3.79,8.2-5.96,12.31l-10.77,19.45,21.57,3.91Z"/>
      <path class="cls-11" d="M755.6,92.21l22.19-69.31,9.77,3.13,10.99,42.18c2.54,9.77,4.21,18.35,5.23,26.5l.24-.04c2.14-9.52,4.63-18.02,8.09-28.82l9.29-29,8.43,2.7-22.19,69.31-9.05-2.9-10.75-42.21c-2.37-9.26-4.46-18.66-5.55-27.29h-.34c-2.29,8.91-4.75,17.31-8.43,28.82l-9.48,29.62-8.43-2.7Z"/>
      <path class="cls-11" d="M848.52,101.4l-16.58,17.49-8.79-4.14,53.35-55.33,10.26,4.83-8.5,76.42-9.09-4.27,2.71-24.02-23.35-10.98ZM873.24,104.92l2.47-21.99c.56-4.99,1.42-9.36,2.23-13.63l-.2-.09c-2.81,3.45-5.77,6.95-8.93,10.36l-15.41,16.02,19.83,9.33Z"/>
      <path class="cls-11" d="M892.51,148.8l39.24-61.29,8.64,5.53-.21,43.58c-.05,10.1-.64,18.82-1.75,26.96l.24.02c4.51-8.65,9.1-16.22,15.22-25.77l16.42-25.65,7.46,4.77-39.24,61.29-8-5.12.45-43.56c.09-9.56.48-19.18,1.64-27.79l-.33-.08c-4.49,8.02-9.03,15.5-15.55,25.69l-16.77,26.19-7.46-4.77Z"/>
      <path class="cls-11" d="M996.78,222.4c-3.76-.89-10.17-4-16.96-9.68-15.73-13.16-19.26-33.01-3.95-51.31,14.62-17.47,36.37-19.41,53.68-4.93,6.96,5.82,10.1,10.98,11.17,13.57l-6.66,4.43c-1.62-3.61-4.69-7.86-9.32-11.74-13.09-10.95-28.78-9.86-41.04,4.8-11.43,13.67-10.91,29.02,2.68,40.39,4.39,3.67,9.62,6.5,13.7,7.52l-3.29,6.96Z"/>
      <path class="cls-11" d="M1066.66,193.03l-51.55,51.37-6.63-6.65,51.55-51.37,6.63,6.65Z"/>
      <path class="cls-11" d="M1056.66,255.59l-22.46,8.74-6.19-7.49,71.86-27.26,7.22,8.74-40.31,65.48-6.39-7.74,12.7-20.57-16.43-19.9ZM1077.51,269.31l11.62-18.83c2.63-4.27,5.28-7.86,7.84-11.37l-.14-.17c-4.02,1.92-8.19,3.82-12.5,5.56l-20.77,7.91,13.96,16.9Z"/>
      <path class="cls-11" d="M1137.23,278.32l5.11,7.88-54.45,35.3,16.92,26.09-6.61,4.29-22.03-33.97,61.06-39.59Z"/>
    </g>
  </g>
</svg>