<?xml version="1.0" encoding="UTF-8"?>
<svg id="Layer_2" data-name="Layer 2" xmlns="http://www.w3.org/2000/svg" viewBox="0 0 310.26 510.44">
  <defs>
    <style>
      .cls-1, .cls-2 {
        stroke-width: 0px;
      }

      .cls-2 {
        fill: #fff;
      }
    </style>
  </defs>
  <g id="Layer_2-2" data-name="Layer 2">
    <g>
      <path class="cls-2" d="M155.13,509.94c-7.62,0-15.33-.19-22.94-.56l-66.35-3.24c-22.2-1.08-41.27-15.43-48.58-36.54-36.32-104.95-3.18-221.52.72-234.47,3.12-10.37,11.15-18.47,21.48-21.67l54.75-16.97h121.85l54.75,16.97c10.33,3.2,18.36,11.3,21.48,21.67,3.9,12.95,37.04,129.52.72,234.47-7.31,21.11-26.38,35.46-48.58,36.54l-66.35,3.24c-7.61.37-15.33.56-22.94.56Z"/>
      <path class="cls-1" d="M215.98,197l54.68,16.94c10.17,3.15,18.08,11.13,21.15,21.34,3.08,10.22,13.36,47.42,16.53,97.08,3.27,51.21-2.05,97.33-15.81,137.08-7.24,20.92-26.13,35.13-48.13,36.2l-66.35,3.24c-7.6.37-15.31.56-22.92.56s-15.32-.19-22.92-.56l-66.35-3.24c-22-1.07-40.89-15.28-48.13-36.2C3.97,429.69-1.35,383.57,1.92,332.36c3.17-49.66,13.46-86.86,16.53-97.08,3.07-10.21,10.98-18.19,21.15-21.34l54.68-16.94h121.7M216.13,196h-122l-54.83,16.99c-10.48,3.25-18.65,11.5-21.81,22.01-11.5,38.18-32.46,143.03-.71,234.77,7.32,21.15,26.68,35.79,49.03,36.88l66.35,3.24c7.65.37,15.31.56,22.97.56s15.32-.19,22.97-.56l66.35-3.24c22.35-1.09,41.71-15.73,49.03-36.88,31.75-91.74,10.78-196.6-.71-234.77-3.16-10.51-11.33-18.76-21.81-22.01l-54.83-16.99h0Z"/>
    </g>
    <path class="cls-1" d="M278.54,245.5h0s-123.41-1.88-123.41-1.88h0s-.05,0-.05,0h-.05s0,0,0,0l-123.41,1.88h0c-6.65,36.59-10,73.71-10,110.9h0c0,12.72.82,25.43,2.44,38.04l1.67,12.95c2.58,20.01,7.34,39.69,14.2,58.67,1.68,4.65,5.57,8.16,10.37,9.36l11.09,2.77c16.76,4.19,170.61,4.19,187.37,0l11.09-2.77c4.8-1.2,8.69-4.71,10.37-9.36,6.85-18.98,11.61-38.65,14.2-58.67l1.67-12.95c1.63-12.61,2.44-25.32,2.44-38.04h0c0-37.19-3.35-74.31-10-110.9Z"/>
  </g>
  <g id="Layer_4" data-name="Layer 4">
    <g>
      <path class="cls-2" d="M126.61,460.24c-4.56,0-10.98-4.97-10.98-6.24.06-.5,1.68-4.48,3.73-9.52,8.2-20.17,25.27-62.15,25.27-80.48,0-16.6-.14-65.75-.25-104.06v-.49s-.5,0-.5,0c-30.68-.3-59.1-1.83-80.02-4.31-29.9-3.54-32.23-7.5-32.23-8.63,0-5.69,42.88-12.26,112.17-12.94h.5s-.08-26.22-.08-26.22l17.42-2.75c-.02,2.59-.11,13.47-.24,28.43v.5s.5,0,.5,0c72.11.42,116.75,7.07,116.75,12.98s-44.73,12.58-117,12.98h-.49s0,.5,0,.5c-.37,37.53-.94,85.35-1.5,100-1.02,26.42-27.2,96.92-30.8,99.62-.56.42-1.31.64-2.22.64h0Z"/>
      <path class="cls-1" d="M161.12,205.17c-.03,3.39-.11,13.83-.24,27.84v1s.99,0,.99,0c31.65.18,61.13,1.67,83.02,4.17,32.3,3.7,33.23,7.85,33.23,8.31s-.93,4.62-33.32,8.32c-21.94,2.51-51.49,3.99-83.19,4.17h-.98s0,.99,0,.99c-.37,37.54-.94,85.36-1.5,99.99-1,26.02-27.02,96.43-30.6,99.24-.47.36-1.12.54-1.92.54-4.16,0-10-4.48-10.47-5.73.22-.85,1.83-4.8,3.68-9.34,8.21-20.2,25.31-62.25,25.31-80.66,0-16.59-.14-65.74-.25-104.06v-.99s-.99,0-.99,0c-30.66-.3-59.06-1.83-79.97-4.31-30.9-3.66-31.79-7.69-31.79-8.14s.89-4.48,31.76-8.13c20.89-2.48,49.27-4.01,79.91-4.31h.99s0-1,0-1l-.08-25.29,16.41-2.6M162.13,204l-18.42,2.91s.03,10.49.08,26.14c-63.17.62-112.66,6.4-112.66,13.44s49.54,12.82,112.75,13.44c.12,38.84.25,87.53.25,104.06,0,23.54-29,88-29,90,0,1.66,6.85,6.74,11.48,6.74.96,0,1.83-.22,2.52-.74,4-3,30-74,31-100,.56-14.51,1.12-61.4,1.5-100.02,65.46-.37,117.5-6.26,117.5-13.48s-51.9-13.1-117.25-13.48c.15-17.21.25-29.02.25-29.02h0Z"/>
    </g>
  </g>
  <g id="Layer_3" data-name="Layer 3">
    <path class="cls-1" d="M87.13,93v99h.04c.88,11.09,30.96,20,67.96,20s67.07-8.91,67.96-20h.04v-99H87.13Z"/>
    <g>
      <ellipse class="cls-2" cx="155.13" cy="92.5" rx="67.5" ry="20"/>
      <path class="cls-1" d="M155.13,73c36.32,0,67,8.93,67,19.5s-30.68,19.5-67,19.5-67-8.93-67-19.5,30.68-19.5,67-19.5M155.13,72c-37.56,0-68,9.18-68,20.5s30.44,20.5,68,20.5,68-9.18,68-20.5-30.44-20.5-68-20.5h0Z"/>
    </g>
    <path class="cls-1" d="M110.13,15v69h.11c1.55,7.82,21.05,14,44.89,14s43.34-6.18,44.89-14h.11V15h-90Z"/>
    <g>
      <ellipse class="cls-2" cx="155.13" cy="15" rx="44.5" ry="14.5"/>
      <path class="cls-1" d="M155.13,1c26.32,0,44,7.24,44,14s-17.68,14-44,14-44-7.24-44-14S128.81,1,155.13,1M155.13,0c-24.85,0-45,6.72-45,15s20.15,15,45,15,45-6.72,45-15S179.98,0,155.13,0h0Z"/>
    </g>
    <g>
      <ellipse class="cls-2" cx="119.63" cy="48" rx="3" ry="8.5"/>
      <path class="cls-1" d="M119.63,40c.85,0,2.5,2.82,2.5,8s-1.65,8-2.5,8-2.5-2.82-2.5-8,1.65-8,2.5-8M119.63,39c-1.93,0-3.5,4.03-3.5,9s1.57,9,3.5,9,3.5-4.03,3.5-9-1.57-9-3.5-9h0Z"/>
    </g>
    <ellipse class="cls-1" cx="119.13" cy="48" rx="1" ry="3"/>
  </g>
</svg>