<svg width="20" height="20" viewBox="0 0 20 20" fill="none" xmlns="http://www.w3.org/2000/svg">
<path fill-rule="evenodd" clip-rule="evenodd" d="M16.7316 3.26098C14.9458 1.48142 12.5706 0.500903 10.0399 0.5C4.82519 0.5 0.581197 4.72318 0.579382 9.91423C0.578475 11.5737 1.0144 13.1934 1.84224 14.6209L0.5 19.5L5.51513 18.1908C6.89682 18.9411 8.45271 19.3361 10.0358 19.3366H10.0399C15.2537 19.3366 19.4982 15.1129 19.5 9.9219C19.5009 7.40608 18.5179 5.04099 16.7316 3.26143V3.26098ZM10.0399 17.7466H10.0367C8.62598 17.7462 7.24204 17.3688 6.03454 16.656L5.74739 16.4863L2.77124 17.2631L3.56551 14.3753L3.37862 14.0792C2.5916 12.8332 2.17564 11.3931 2.17655 9.9147C2.17836 5.60032 5.70565 2.08995 10.0431 2.08995C12.1433 2.09086 14.1175 2.9057 15.6021 4.38505C17.0868 5.86396 17.9037 7.83042 17.9028 9.921C17.901 14.2358 14.3737 17.7462 10.0399 17.7462V17.7466ZM14.3528 11.8861C14.1165 11.7683 12.9544 11.1994 12.7375 11.1209C12.5207 11.0423 12.3633 11.0031 12.2059 11.2387C12.0485 11.4744 11.5954 12.0044 11.4575 12.161C11.3196 12.3181 11.1816 12.3376 10.9453 12.2197C10.709 12.1019 9.94738 11.8536 9.04425 11.0523C8.34162 10.4284 7.86709 9.65828 7.72924 9.4226C7.59133 9.18697 7.71472 9.05965 7.83263 8.94273C7.93876 8.83711 8.06897 8.66782 8.18735 8.53058C8.30578 8.39333 8.34478 8.29495 8.42369 8.13827C8.50264 7.98117 8.46316 7.84398 8.40421 7.72611C8.34521 7.6083 7.87258 6.45034 7.67524 5.97951C7.48334 5.52086 7.28833 5.58316 7.14361 5.57549C7.00571 5.56871 6.84832 5.56736 6.69046 5.56736C6.53261 5.56736 6.27674 5.62605 6.05993 5.8617C5.84312 6.09733 5.23254 6.66659 5.23254 7.82407C5.23254 8.98155 6.07946 10.1007 6.19784 10.2578C6.31622 10.4149 7.86482 12.7908 10.2359 13.8101C10.7997 14.0525 11.2402 14.1974 11.5835 14.3058C12.1497 14.485 12.665 14.4598 13.0723 14.3992C13.5264 14.3315 14.4708 13.83 14.6677 13.2806C14.8645 12.7312 14.8645 12.2599 14.8056 12.1619C14.7466 12.064 14.5888 12.0048 14.3524 11.887L14.3528 11.8861Z" fill="white"/>
</svg>
